<svg width="89" height="156" viewBox="0 0 89 156" fill="none" xmlns="http://www.w3.org/2000/svg">
<path d="M77.57 155.68H11.17C8.20834 155.677 5.36875 154.5 3.27454 152.405C1.18033 150.311 0.00264788 147.472 0 144.51L0 133.51H5.88V144.51C5.88 145.913 6.43734 147.259 7.42941 148.251C8.42147 149.243 9.767 149.8 11.17 149.8H77.57C78.973 149.8 80.3185 149.243 81.3106 148.251C82.3027 147.259 82.86 145.913 82.86 144.51V133.51H88.74V144.51C88.7374 147.472 87.5597 150.311 85.4655 152.405C83.3713 154.5 80.5317 155.677 77.57 155.68Z" fill="#1D1D1B"/>
<path d="M88.74 133.95H0V95.8199H5.88V128.07H82.86V95.8199H88.74V133.95Z" fill="#1D1D1B"/>
<path d="M88.74 22.17H82.86V11.17C82.86 9.767 82.3027 8.42147 81.3106 7.42941C80.3185 6.43734 78.973 5.88 77.57 5.88H11.17C9.767 5.88 8.42147 6.43734 7.42941 7.42941C6.43734 8.42147 5.88 9.767 5.88 11.17V22.17H0V11.17C0.00264788 8.20834 1.18033 5.36875 3.27454 3.27454C5.36875 1.18033 8.20834 0.00264788 11.17 0L77.57 0C80.5317 0.00264788 83.3713 1.18033 85.4655 3.27454C87.5597 5.36875 88.7374 8.20834 88.74 11.17V22.17Z" fill="#1D1D1B"/>
<path d="M88.74 60.62H82.86V25.1H5.88V60.62H0V19.23H88.74V60.62Z" fill="#1D1D1B"/>
<path d="M44.01 148.02C47.3292 148.02 50.02 145.329 50.02 142.01C50.02 138.691 47.3292 136 44.01 136C40.6908 136 38 138.691 38 142.01C38 145.329 40.6908 148.02 44.01 148.02Z" fill="#1D1D1B"/>
<path d="M43.93 143.86C44.9959 143.86 45.86 142.996 45.86 141.93C45.86 140.864 44.9959 140 43.93 140C42.8641 140 42 140.864 42 141.93C42 142.996 42.8641 143.86 43.93 143.86Z" fill="white"/>
<path d="M9.6366 71.7842H24.0177V74.3739H12.9426V78.1207H18.9209V80.7104H12.9426V86H9.6366V71.7842ZM31.4259 71.7842V86H28.1199V71.7842H31.4259ZM49.6581 71.7842H53.46L47.2613 78.3135L54.9202 86H50.4295L45.2226 80.49L40.4289 86H36.5168L43.2665 78.6992L36.4066 71.7842H40.787L45.3328 76.6054L49.6581 71.7842ZM61.7739 71.7842V86H58.4679V71.7842H61.7739ZM75.6533 74.3739V86H72.3473V74.3739H65.8179V71.7842H82.1826V74.3739H75.6533Z" fill="#1D1D1B"/>
</svg>
