<svg width="15" height="19" viewBox="0 0 15 19" fill="none" xmlns="http://www.w3.org/2000/svg">
<path d="M7.33333 8.00002C8.05851 8.00002 8.76746 7.76542 9.37044 7.32588C9.97342 6.88635 10.4434 6.26164 10.7209 5.53073C10.9984 4.79983 11.071 3.99556 10.9295 3.21964C10.7881 2.44371 10.4388 1.73098 9.92603 1.17157C9.41325 0.612161 8.75994 0.231201 8.0487 0.076861C7.33737 -0.077479 6.60018 0.00173086 5.93019 0.304481C5.26016 0.607231 4.68751 1.11992 4.28461 1.77772C3.88172 2.43551 3.66667 3.20887 3.66667 4C3.66779 5.06049 4.05445 6.0772 4.74184 6.82708C5.42923 7.57692 6.36121 7.99882 7.33333 8.00002ZM7.33333 2C7.69597 2 8.05035 2.1173 8.35184 2.33706C8.65333 2.55682 8.88837 2.86918 9.02715 3.23463C9.16584 3.60008 9.20214 4.00222 9.13147 4.39018C9.0607 4.77814 8.88608 5.13451 8.62968 5.41421C8.37329 5.69392 8.04659 5.8844 7.69102 5.96157C7.33535 6.03874 6.96676 5.99913 6.63172 5.84776C6.29677 5.69638 6.0104 5.44004 5.80901 5.11114C5.60753 4.78224 5.5 4.39556 5.5 4C5.50055 3.46975 5.69388 2.9614 6.03763 2.58646C6.38128 2.21152 6.84732 2.00061 7.33333 2ZM14.3981 12.7737C12.985 11.2289 11.1772 10.1856 9.2114 9.78052L7.33333 12.3126L5.45527 9.78092C3.48951 10.186 1.68172 11.2293 0.268584 12.7741L0 13.0671V18.57H14.6667V13.0671L14.3981 12.7737ZM12.8333 16.57H1.83333V13.9084C2.67916 13.064 3.67985 12.4255 4.76905 12.0351L5.90819 13.5707L7.33333 15.4919L8.75848 13.5708L9.89762 12.0351C10.9868 12.4255 11.9875 13.064 12.8333 13.9084V16.57Z" fill="#202020"/>
</svg>
