<svg width="11" height="20" viewBox="0 0 11 20" fill="none" xmlns="http://www.w3.org/2000/svg">
<path d="M8.70833 0H2.29167C1.68388 0 1.10098 0.26339 0.671211 0.73223C0.241441 1.20107 0 1.83696 0 2.5V17.5C0 18.163 0.241441 18.7989 0.671211 19.2678C1.10098 19.7366 1.68388 20 2.29167 20H8.70833C9.31608 20 9.89899 19.7366 10.3288 19.2678C10.7585 18.7989 11 18.163 11 17.5V2.5C11 1.83696 10.7585 1.20107 10.3288 0.73223C9.89899 0.26339 9.31608 0 8.70833 0ZM9.16667 17.5C9.16648 17.6326 9.11818 17.7596 9.03228 17.8534C8.9463 17.9471 8.82988 17.9998 8.70833 18H2.29167C2.17015 17.9998 2.05366 17.9471 1.96773 17.8534C1.88182 17.7596 1.83348 17.6326 1.83333 17.5V2.5C1.83348 2.36744 1.88182 2.24036 1.96773 2.14662C2.05366 2.05289 2.17015 2.00016 2.29167 2H8.70833C8.82988 2.00016 8.9463 2.05289 9.03228 2.14662C9.11818 2.24036 9.16648 2.36744 9.16667 2.5V17.5ZM5.5 15C5.31868 15 5.14149 15.0586 4.9907 15.1685C4.84 15.2784 4.72248 15.4346 4.65309 15.6173C4.5837 15.8 4.56555 16.0011 4.60093 16.1951C4.63632 16.3891 4.72358 16.5673 4.85183 16.7071C4.97998 16.847 5.14333 16.9422 5.32116 16.9808C5.49899 17.0194 5.68333 16.9996 5.85081 16.9239C6.01828 16.8482 6.16147 16.72 6.26221 16.5556C6.36295 16.3911 6.41667 16.1978 6.41667 16C6.41667 15.7348 6.32005 15.4804 6.14818 15.2929C5.9763 15.1054 5.7431 15 5.5 15Z" fill="#202020"/>
</svg>
