<svg width="40" height="41" viewBox="0 0 40 41" fill="none" xmlns="http://www.w3.org/2000/svg">
<ellipse cx="19.9637" cy="20.5" rx="19.9637" ry="20.5" fill="#1F7ADC"/>
<path d="M23.7843 22.2371L22.38 23.0495C22.2114 23.1469 22.0165 23.185 21.8249 23.158C21.6333 23.131 21.4555 23.0403 21.3188 22.8998L16.6316 18.0867C16.4949 17.9463 16.4067 17.7638 16.3804 17.5671C16.3541 17.3703 16.3911 17.1702 16.4859 16.9971L17.277 15.555C17.4195 15.2955 17.4752 14.9952 17.4358 14.7001C17.3964 14.4049 17.264 14.1311 17.0588 13.9205L14.9539 11.7592C14.8306 11.6324 14.6841 11.5319 14.5229 11.4633C14.3617 11.3947 14.1889 11.3594 14.0143 11.3594C13.8398 11.3594 13.667 11.3947 13.5058 11.4633C13.3446 11.5319 13.1981 11.6324 13.0748 11.7592L12.1191 12.7398C11.5602 13.3137 11.2042 14.063 11.1077 14.8685C11.0112 15.674 11.1797 16.4895 11.5865 17.1854L12.066 18.0061C14.5149 22.197 17.9714 25.6716 22.1039 28.0964L22.1986 28.1523C23.6104 28.9805 25.3545 28.7392 26.4849 27.5792L27.4829 26.5543C27.6063 26.4276 27.7042 26.2772 27.771 26.1117C27.8378 25.9461 27.8722 25.7687 27.8722 25.5895C27.8722 25.4103 27.8378 25.2329 27.771 25.0673C27.7042 24.9018 27.6063 24.7514 27.4829 24.6247L25.3767 22.4619C25.1716 22.2509 24.9049 22.1147 24.6174 22.0741C24.3298 22.0335 24.0372 22.0908 23.7843 22.2371Z" fill="white"/>
</svg>
